<?xml version="1.0" encoding="UTF-8" standalone="no"?>
<svg
   enable-background="new 0 0 24 24"
   height="48"
   viewBox="0 0 70 48"
   width="70"
   fill="#000000"
   version="1.1"
   id="svg30518"
   sodipodi:docname="Dashboard.svg"
   inkscape:version="1.1.2 (b8e25be833, 2022-02-05)"
   xmlns:inkscape="http://www.inkscape.org/namespaces/inkscape"
   xmlns:sodipodi="http://sodipodi.sourceforge.net/DTD/sodipodi-0.dtd"
   xmlns="http://www.w3.org/2000/svg"
   xmlns:svg="http://www.w3.org/2000/svg">
  <defs
     id="defs30522">
    <clipPath
       clipPathUnits="userSpaceOnUse"
       id="clipPath31067">
      <path
         id="path31069"
         style="fill:#ff0000;fill-opacity:1;fill-rule:nonzero;stroke:none"
         d="m 0,0 v 24 h 19.40625 c 0.0052,-0.119142 0.01049,-0.238217 0.01563,-0.357422 0.03968,-0.647721 0.02847,-1.298356 0.08008,-1.945312 0.122114,-1.530758 0.08331,-0.724181 0.220703,-1.958985 0.02726,-0.245058 0.04595,-0.49273 0.06836,-0.738281 0.05118,-0.549337 0.04774,-1.098145 0.03516,-1.648438 -0.361218,-0.70803 -0.444967,-1.332207 -0.347656,-1.826171 -0.116662,0.02301 -0.234987,0.04218 -0.353516,0.05664 -0.207199,0.02527 -0.184958,-0.901994 -0.173828,-1.027343 0.0036,-0.04019 0.01412,-0.07947 0.02148,-0.119141 -0.0019,2.04e-4 -0.0039,-2.03e-4 -0.0059,0 9e-4,-0.09977 -0.0077,-0.199528 0.002,-0.298828 0.113003,-1.155715 0.131935,-1.054917 0.279297,-2.080078 0.109608,-0.64225 0.164459,-1.290884 0.255859,-1.935547 0.04858,-0.3426533 0.105883,-0.6852428 0.158203,-1.027344 0.15531,-0.9614197 0.310967,-1.9216164 0.476563,-2.8808594 C 19.02881,6.4389421 18.00235,5.325762 18.664062,3.3535156 18.943996,2.5191668 19.135574,1.6574731 19.314453,0.796875 19.367405,0.54210198 19.417197,0.28669768 19.466797,0.03125 19.468821,0.02082212 19.470726,0.01044353 19.472656,0 Z m 19.646484,0.16601562 c -0.0025,0.0217419 0.01471,0.0924042 0.03906,0.10546876 0.02829,0.0151779 0.05069,0.0280788 0.07813,0.0429687 -0.03624,-0.0505838 -0.06704,-0.0934315 -0.107422,-0.1484375 -0.0055,-0.007426 -0.0089,-0.007247 -0.0098,0 z M 21.947266,14.689453 c -0.03463,0.01248 -0.06894,0.02632 -0.103516,0.03906 0.05835,0.04144 0.116106,0.08774 0.173828,0.136718 -0.01219,-0.02159 -0.02579,-0.04242 -0.03711,-0.06445 -0.01877,-0.03655 -0.0289,-0.07363 -0.0332,-0.111328 z m 0.976562,1.392578 c 0.02472,0.05406 0.04728,0.108961 0.06836,0.164063 0.08915,0.01005 0.157222,0.01955 0.253906,0.0293 -0.05789,-0.04687 -0.109637,-0.09966 -0.166016,-0.148438 -0.05218,-0.01464 -0.104066,-0.0303 -0.15625,-0.04492 z" />
    </clipPath>
    <clipPath
       clipPathUnits="userSpaceOnUse"
       id="clipPath31077">
      <path
         id="path31079"
         style="fill:#ff0000;fill-opacity:1;fill-rule:nonzero;stroke:none"
         d="m 1.5,1.5 v 35 h 18.662109 c 10e-6,-0.002 -9e-6,-0.0039 0,-0.0059 0.004,-0.839654 0.04405,-0.369232 -0.228515,-1.44336 -0.08228,-0.301568 -0.163567,-0.603337 -0.248047,-0.904297 -0.08464,-0.301535 -0.171096,-0.601968 -0.259766,-0.902343 -0.0977,-0.330954 -0.297847,-0.835183 -0.199219,-1.164063 0.398148,-1.327657 1.287314,-1.622771 0.333985,-1.207031 0.05031,-0.200172 0.128744,-0.394566 0.152344,-0.599609 0.05608,-0.487354 0.06278,-0.978731 0.08594,-1.46875 0.02077,-0.439517 0.02386,-0.561482 0.0293,-0.732422 0,-0.0013 -2e-6,-0.0026 0,-0.0039 1.16e-4,-0.09885 0.0045,-0.19814 0,-0.296875 -8.46e-4,-0.01842 -0.0041,-0.05425 -0.0059,-0.07813 -0.0605,-0.214518 -0.07876,-0.440511 -0.07617,-0.667968 -0.02685,-0.195378 -0.05653,-0.387954 -0.103516,-0.582032 -0.152317,-0.640924 -0.250912,-1.304686 -0.257812,-1.964843 -0.0013,-0.127587 0.01188,-0.255345 0.01758,-0.382813 0.0067,-0.15111 0.01303,-0.302006 0.01953,-0.453125 0.03968,-0.647721 0.02847,-1.298356 0.08008,-1.945312 0.122114,-1.530758 0.08331,-0.724181 0.220703,-1.958985 0.02726,-0.245058 0.04595,-0.49273 0.06836,-0.738281 0.05118,-0.549337 0.04774,-1.098145 0.03516,-1.648438 -0.361218,-0.70803 -0.444967,-1.332207 -0.347656,-1.826171 -0.116662,0.02301 -0.234987,0.04218 -0.353516,0.05664 -0.207199,0.02527 -0.184958,-0.901992 -0.173828,-1.027343 0.0036,-0.04019 0.01412,-0.07947 0.02148,-0.119141 -0.0019,2.04e-4 -0.0039,-2.03e-4 -0.0059,0 9e-4,-0.09977 -0.0077,-0.199528 0.002,-0.298828 0.113003,-1.155715 0.131935,-1.054917 0.279297,-2.080078 0.109608,-0.64225 0.164459,-1.290884 0.255859,-1.935547 0.04858,-0.3426536 0.105883,-0.6852428 0.158203,-1.027344 0.15531,-0.9614197 0.310967,-1.9216164 0.476563,-2.8808594 C 19.02881,6.4389421 18.00235,5.325762 18.664062,3.3535156 18.867647,2.7467291 19.022887,2.1247726 19.162109,1.5 Z m 31.648438,0 c 0.01898,0.022792 0.03623,0.048658 0.05469,0.072266 C 33.198828,1.548433 33.198828,1.523923 33.195328,1.5 Z M 36.5,3.8964844 c -0.02317,0.053842 -0.04527,0.1125489 -0.06836,0.1640625 0.02323,0.010043 0.04518,0.023001 0.06836,0.033203 z m -7.894531,4.5664062 c -0.01273,0.00322 -0.01801,0.00645 -0.0293,0.00977 0.0027,0.00124 0.0051,0.00265 0.0078,0.00391 0.0081,-0.00193 0.01612,-0.00398 0.02344,-0.00586 -8.85e-4,-0.00249 -0.0011,-0.00535 -0.002,-0.00781 z M 36.5,14.554688 c -0.127165,0.0015 -0.258852,0.0033 -0.388672,0.0039 0.0018,0.01946 0.0041,0.03933 0.0059,0.05859 0.01113,0.06341 0.04838,0.155646 0.01172,0.179687 0.0039,0.06641 0.009,0.132503 0.0078,0.203125 -0.0018,0.110412 -0.01398,0.219903 -0.02148,0.330078 -0.488325,-0.05299 -0.980633,-0.08955 -1.470703,-0.130859 -0.288676,0.22785 -0.65536,0.339291 -1.123047,0.199219 -0.12716,-0.03809 -0.224175,-0.07908 -0.332031,-0.119141 -0.357491,0.154987 -0.788797,0.260145 -1.3125,0.275391 -0.156712,0.0046 -0.313698,0.0027 -0.470703,0 -0.396489,0.243524 -0.952868,0.261261 -1.447266,0.222656 -0.05241,0.201848 -0.101311,0.388069 -0.144531,0.53125 0.70878,-0.201896 1.52745,-0.0378 2.275391,-0.109375 0.264263,0.357719 0.608224,0.666821 0.791015,1.072265 0.184044,0.408221 0.313063,0.805848 0.410157,1.201172 0.02963,0.02829 0.06061,0.06377 0.08984,0.08398 0.131056,0.09061 0.212525,0.158776 0.326172,0.240234 0.04282,6.5e-5 0.08562,0.0014 0.123047,0.0098 0.327831,0.07324 0.645702,0.185945 0.957031,0.3125 0.200412,-0.02909 0.40874,-0.0501 0.603516,-0.03711 0.09561,0.0064 0.190123,0.02269 0.285156,0.03516 0.175544,-0.367266 0.374223,-0.69212 0.824188,-0.882835 z m -14.552734,0.134765 c -0.03463,0.01248 -0.06894,0.02632 -0.103516,0.03906 0.05835,0.04144 0.116106,0.08774 0.173828,0.136718 -0.01219,-0.02159 -0.02579,-0.04242 -0.03711,-0.06445 -0.01877,-0.03655 -0.0289,-0.07363 -0.0332,-0.111328 z m 9.011718,0.865235 c -0.04566,0.0018 0.09247,0.01534 0.136719,0.0039 0.0072,-0.0019 0.0068,-0.0021 0.01367,-0.0039 -0.05011,4.98e-4 -0.100344,-0.002 -0.150391,0 z m -5.970703,0.423828 c -0.06409,0.009 -0.09267,0.02166 -0.183593,0.126953 -0.02636,0.02362 -0.109523,0.0886 -0.07813,0.07227 0.08124,-0.04225 0.172951,-0.115224 0.261719,-0.199218 z m -2.064453,0.103515 c 0.02472,0.05406 0.04728,0.108961 0.06836,0.164063 0.08915,0.01005 0.157222,0.01955 0.253906,0.0293 -0.05789,-0.04687 -0.109637,-0.09966 -0.166016,-0.148438 -0.05218,-0.01464 -0.104066,-0.0303 -0.15625,-0.04492 z m 1.298828,0.583985 c -0.01503,0.0075 -0.03001,0.01268 -0.04492,0.01953 5.55e-4,0.0088 -0.0012,0.02132 0,0.0293 0.01958,0.126281 0.02094,0.172731 0.0332,0.261718 0.286442,0.01411 0.571434,0.04151 0.853515,0.0957 0.189034,0.03632 0.111103,0.368053 0.158203,0.554687 0.10304,0.408299 0.167412,0.709867 0.236328,1.013672 0.01243,-0.0018 0.02468,-0.0044 0.03711,-0.0059 0.179418,-0.586421 0.369411,-1.170487 0.564453,-1.751954 -0.01956,-0.0014 -0.03909,-0.0018 -0.05859,-0.002 -0.287408,-0.0019 -0.573925,0.0028 -0.861328,0 -0.305952,-0.07229 -0.615093,-0.130765 -0.917969,-0.214843 z m 9.171875,2.099609 c 0.0094,0.03016 0.01795,0.04534 0.02734,0.07422 0.0026,-6.42e-4 0.0052,-0.0013 0.0078,-0.002 -0.01395,-0.03152 -0.05103,-0.123152 -0.03516,-0.07227 z M 36.5,19.068359 c -0.104329,0.03883 -0.20515,0.08707 -0.308594,0.128907 -0.01367,0.02488 -0.03291,0.04813 -0.04883,0.07227 0.06659,-0.03195 0.128968,-0.0761 0.195313,-0.109375 0.03537,-0.01774 0.102807,-0.04639 0.162109,-0.07227 z m -1.666016,0.06836 c 0.02196,0.0096 0.04035,0.02623 0.06055,0.03906 h 0.002 c 0.05738,-0.03088 0.0075,-0.03878 -0.0625,-0.03906 z m 1.113282,1.25 v 0.002 c 0.04878,0.0031 0.09769,0.0094 0.146484,0.01172 0.0241,0.0011 -0.04672,-0.0087 -0.07031,-0.01367 -0.03562,3.37e-4 -0.04451,0 -0.07617,0 z m -0.917969,3.576172 c -0.007,0.01192 -0.0288,0.04654 -0.03711,0.06055 0.03483,0.01284 0.07242,0.02041 0.113281,0.02734 -0.0099,-0.02397 -0.019,-0.04845 -0.0293,-0.07227 -0.01559,-0.0053 -0.03157,-0.0097 -0.04687,-0.01563 z m 1.255859,12.064453 c -0.04459,0.06018 -0.0975,0.1287 -0.167968,0.222656 -0.06643,0.08857 -0.133402,0.171708 -0.201172,0.25 H 36.5 v -0.460938 c -0.07159,-0.0043 -0.143198,-0.0072 -0.214844,-0.01172 z" />
    </clipPath>
  </defs>
  <sodipodi:namedview
     id="namedview30520"
     pagecolor="#ffffff"
     bordercolor="#666666"
     borderopacity="1.0"
     inkscape:pageshadow="2"
     inkscape:pageopacity="0.0"
     inkscape:pagecheckerboard="0"
     showgrid="false"
     inkscape:zoom="7.4895835"
     inkscape:cx="23.232267"
     inkscape:cy="31.710709"
     inkscape:window-width="1920"
     inkscape:window-height="1017"
     inkscape:window-x="-8"
     inkscape:window-y="-8"
     inkscape:window-maximized="1"
     inkscape:current-layer="svg30518"
     width="70px" />
  <g
     id="g32214"
     transform="translate(16.574409,5.9326382)">
    <rect
       fill="none"
       height="24"
       width="24"
       id="rect30514"
       x="0"
       y="0"
       clip-path="url(#clipPath31067)" />
    <rect
       style="fill:#a9a9a9"
       id="rect31590"
       width="12.667966"
       height="34.269447"
       x="2"
       y="1.8652763"
       rx="5" />
    <rect
       style="fill:#a9a9a9"
       id="rect31887"
       width="20.828928"
       height="3"
       x="16.022253"
       y="2.2726007"
       rx="3" />
    <rect
       style="fill:#a9a9a9;stroke-width:1.03638"
       id="rect31991"
       width="20"
       height="29"
       x="16.667965"
       y="7.1347222"
       rx="3" />
  </g>
</svg>
