<?xml version="1.0" encoding="UTF-8" standalone="no"?>
<!-- Created with Inkscape (http://www.inkscape.org/) -->

<svg
   width="70"
   height="48"
   viewBox="0 0 18.520834 12.7"
   version="1.1"
   id="svg32101"
   inkscape:version="1.1.2 (b8e25be833, 2022-02-05)"
   sodipodi:docname="DashboardR.svg"
   xmlns:inkscape="http://www.inkscape.org/namespaces/inkscape"
   xmlns:sodipodi="http://sodipodi.sourceforge.net/DTD/sodipodi-0.dtd"
   xmlns="http://www.w3.org/2000/svg"
   xmlns:svg="http://www.w3.org/2000/svg">
  <sodipodi:namedview
     id="namedview32103"
     pagecolor="#ffffff"
     bordercolor="#666666"
     borderopacity="1.0"
     inkscape:pageshadow="2"
     inkscape:pageopacity="0.0"
     inkscape:pagecheckerboard="0"
     inkscape:document-units="mm"
     showgrid="false"
     width="70mm"
     units="px"
     inkscape:zoom="5.1241863"
     inkscape:cx="39.616046"
     inkscape:cy="24.881999"
     inkscape:window-width="1920"
     inkscape:window-height="1017"
     inkscape:window-x="-8"
     inkscape:window-y="-8"
     inkscape:window-maximized="1"
     inkscape:current-layer="layer1" />
  <defs
     id="defs32098">
    <clipPath
       clipPathUnits="userSpaceOnUse"
       id="clipPath31067">
      <path
         id="path31069"
         style="fill:#ff0000;fill-opacity:1;fill-rule:nonzero;stroke:none"
         d="m 0,0 v 24 h 19.40625 c 0.0052,-0.119142 0.01049,-0.238217 0.01563,-0.357422 0.03968,-0.647721 0.02847,-1.298356 0.08008,-1.945312 0.122114,-1.530758 0.08331,-0.724181 0.220703,-1.958985 0.02726,-0.245058 0.04595,-0.49273 0.06836,-0.738281 0.05118,-0.549337 0.04774,-1.098145 0.03516,-1.648438 -0.361218,-0.70803 -0.444967,-1.332207 -0.347656,-1.826171 -0.116662,0.02301 -0.234987,0.04218 -0.353516,0.05664 -0.207199,0.02527 -0.184958,-0.901994 -0.173828,-1.027343 0.0036,-0.04019 0.01412,-0.07947 0.02148,-0.119141 -0.0019,2.04e-4 -0.0039,-2.03e-4 -0.0059,0 9e-4,-0.09977 -0.0077,-0.199528 0.002,-0.298828 0.113003,-1.155715 0.131935,-1.054917 0.279297,-2.080078 0.109608,-0.64225 0.164459,-1.290884 0.255859,-1.935547 0.04858,-0.3426533 0.105883,-0.6852428 0.158203,-1.027344 0.15531,-0.9614197 0.310967,-1.9216164 0.476563,-2.8808594 C 19.02881,6.4389421 18.00235,5.325762 18.664062,3.3535156 18.943996,2.5191668 19.135574,1.6574731 19.314453,0.796875 19.367405,0.54210198 19.417197,0.28669768 19.466797,0.03125 19.468821,0.02082212 19.470726,0.01044353 19.472656,0 Z m 19.646484,0.16601562 c -0.0025,0.0217419 0.01471,0.0924042 0.03906,0.10546876 0.02829,0.0151779 0.05069,0.0280788 0.07813,0.0429687 -0.03624,-0.0505838 -0.06704,-0.0934315 -0.107422,-0.1484375 -0.0055,-0.007426 -0.0089,-0.007247 -0.0098,0 z M 21.947266,14.689453 c -0.03463,0.01248 -0.06894,0.02632 -0.103516,0.03906 0.05835,0.04144 0.116106,0.08774 0.173828,0.136718 -0.01219,-0.02159 -0.02579,-0.04242 -0.03711,-0.06445 -0.01877,-0.03655 -0.0289,-0.07363 -0.0332,-0.111328 z m 0.976562,1.392578 c 0.02472,0.05406 0.04728,0.108961 0.06836,0.164063 0.08915,0.01005 0.157222,0.01955 0.253906,0.0293 -0.05789,-0.04687 -0.109637,-0.09966 -0.166016,-0.148438 -0.05218,-0.01464 -0.104066,-0.0303 -0.15625,-0.04492 z" />
    </clipPath>
  </defs>
  <g
     inkscape:label="Camada 1"
     inkscape:groupmode="layer"
     id="layer1"
     transform="translate(-53.36829,-91.465852)">
    <g
       id="g32197"
       transform="translate(1.9567825,-0.48084037)">
      <rect
         fill="none"
         height="24"
         width="24"
         id="rect30514"
         x="0"
         y="0"
         clip-path="url(#clipPath31067)"
         transform="matrix(0.26458333,0,0,0.26458333,59.553442,94.640852)" />
      <rect
         style="fill:#a9a9a9;stroke-width:0.264583"
         id="rect31590"
         width="3.3517325"
         height="9.0671244"
         x="61.482006"
         y="93.811455"
         rx="1.3229166" />
      <rect
         style="fill:#a9a9a9;stroke-width:0.264583"
         id="rect31887"
         width="5.5109873"
         height="0.79374999"
         x="55.639877"
         y="93.714806"
         rx="0.79374999" />
      <rect
         style="fill:#a9a9a9;stroke-width:0.274209"
         id="rect31991"
         width="5.2916665"
         height="7.6729164"
         x="55.749535"
         y="95.037727"
         rx="0.79374999" />
    </g>
  </g>
</svg>
