<?xml version="1.0" encoding="UTF-8" standalone="no"?>
<svg
   enable-background="new 0 0 24 24"
   height="48px"
   viewBox="0 0 24 24"
   width="48px"
   fill="#FFFFFF"
   version="1.1"
   id="svg8"
   sodipodi:docname="menu_open_white_right_48dp.svg"
   inkscape:version="1.1.2 (b8e25be833, 2022-02-05)"
   xmlns:inkscape="http://www.inkscape.org/namespaces/inkscape"
   xmlns:sodipodi="http://sodipodi.sourceforge.net/DTD/sodipodi-0.dtd"
   xmlns="http://www.w3.org/2000/svg"
   xmlns:svg="http://www.w3.org/2000/svg">
  <defs
     id="defs12" />
  <sodipodi:namedview
     id="namedview10"
     pagecolor="#ffffff"
     bordercolor="#666666"
     borderopacity="1.0"
     inkscape:pageshadow="2"
     inkscape:pageopacity="0.0"
     inkscape:pagecheckerboard="0"
     showgrid="false"
     inkscape:zoom="14.979167"
     inkscape:cx="23.96662"
     inkscape:cy="29.340751"
     inkscape:window-width="1920"
     inkscape:window-height="1017"
     inkscape:window-x="-8"
     inkscape:window-y="-8"
     inkscape:window-maximized="1"
     inkscape:current-layer="svg8" />
  <path
     d="M0,0h24v24H0V0z"
     fill="none"
     id="path2" />
  <path
     d="m 19.5925,18 h -11 c -0.55,0 -1,-0.45 -1,-1 v 0 c 0,-0.55 0.45,-1 1,-1 h 11 c 0.55,0 1,0.45 1,1 v 0 c 0,0.55 -0.45,1 -1,1 z m 0,-5 h -8 c -0.55,0 -1,-0.45 -1,-1 v 0 c 0,-0.55 0.45,-1 1,-1 h 8 c 0.55,0 1,0.45 1,1 v 0 c 0,0.55 -0.45,1 -1,1 z m 1,-6 v 0 c 0,0.55 -0.45,1 -1,1 h -11 c -0.55,0 -1,-0.45 -1,-1 v 0 c 0,-0.55 0.45,-1 1,-1 h 11 c 0.55,0 1,0.45 1,1 z m -17.3,7.88 2.88,-2.88 -2.88,-2.88 c -0.39,-0.39 -0.39,-1.02 0,-1.41 v 0 c 0.39,-0.39 1.02,-0.39 1.41,0 l 3.59,3.59 c 0.39,0.39 0.39,1.02 0,1.41 l -3.59,3.59 c -0.39,0.39 -1.02,0.39 -1.41,0 v 0 c -0.38,-0.39 -0.39,-1.03 0,-1.42 z"
     id="path4" />
  <path
     d="M0,0h24v24H0V0z"
     fill="none"
     id="path6" />
</svg>
