<?xml version="1.0" encoding="UTF-8" standalone="no"?>
<svg
   enable-background="new 0 0 24 24"
   height="26"
   viewBox="0 0 12.645197 13"
   width="25.290394"
   fill="#ffffff"
   version="1.1"
   id="svg1183"
   sodipodi:docname="settings_white_48dp.svg"
   inkscape:version="1.1.2 (b8e25be833, 2022-02-05)"
   xmlns:inkscape="http://www.inkscape.org/namespaces/inkscape"
   xmlns:sodipodi="http://sodipodi.sourceforge.net/DTD/sodipodi-0.dtd"
   xmlns="http://www.w3.org/2000/svg"
   xmlns:svg="http://www.w3.org/2000/svg">
  <defs
     id="defs1187" />
  <sodipodi:namedview
     id="namedview1185"
     pagecolor="#ffffff"
     bordercolor="#666666"
     borderopacity="1.0"
     inkscape:pageshadow="2"
     inkscape:pageopacity="0.0"
     inkscape:pagecheckerboard="0"
     showgrid="false"
     inkscape:zoom="14.979167"
     inkscape:cx="16.623088"
     inkscape:cy="19.927677"
     inkscape:window-width="1920"
     inkscape:window-height="1017"
     inkscape:window-x="-8"
     inkscape:window-y="-8"
     inkscape:window-maximized="1"
     inkscape:current-layer="g1181" />
  <g
     id="g1181"
     style="fill:#ffffff"
     transform="translate(-10.840027,-2.3332406)">
    <path
       d="m 21.997004,9.4696991 c 0.02708,-0.203125 0.04062,-0.4130209 0.04062,-0.6364584 0,-0.2166666 -0.01354,-0.4333333 -0.0474,-0.6364583 l 1.374479,-1.0697919 c 0.121875,-0.094792 0.155729,-0.2776042 0.08125,-0.4130208 l -1.3,-2.2479166 C 22.064712,4.3170947 21.895441,4.2696989 21.746483,4.3170947 l -1.618229,0.65 C 19.789712,4.7098031 19.430858,4.4931364 19.031379,4.3306364 l -0.24375,-1.7197916 c -0.02708,-0.1625 -0.1625,-0.2776042 -0.325,-0.2776042 h -2.6 c -0.1625,0 -0.291146,0.1151042 -0.318229,0.2776042 l -0.24375,1.7197916 c -0.399479,0.1625 -0.765104,0.3859375 -1.096875,0.6364583 l -1.618229,-0.65 c -0.148959,-0.054167 -0.318229,0 -0.399479,0.1489584 l -1.29323,2.2479166 c -0.08125,0.1421875 -0.05417,0.3182291 0.08125,0.4130208 l 1.37448,1.0697919 c -0.03385,0.203125 -0.06094,0.4265625 -0.06094,0.6364583 0,0.2098959 0.01354,0.4333334 0.0474,0.6364584 l -1.374479,1.0697919 c -0.121875,0.09479 -0.155729,0.277604 -0.08125,0.413021 l 1.3,2.247916 c 0.08125,0.148958 0.250521,0.196354 0.399479,0.148958 l 1.618229,-0.65 c 0.338542,0.257292 0.697396,0.473959 1.096875,0.636459 l 0.24375,1.719791 c 0.03385,0.1625 0.1625,0.277605 0.325,0.277605 h 2.6 c 0.1625,0 0.297917,-0.115105 0.318229,-0.277605 l 0.24375,-1.719791 c 0.399479,-0.1625 0.765104,-0.379167 1.096875,-0.636459 l 1.618229,0.65 c 0.148958,0.05417 0.318229,0 0.399479,-0.148958 l 1.3,-2.247916 c 0.08125,-0.148959 0.0474,-0.31823 -0.08125,-0.413021 z m -4.834375,1.8010419 c -1.340625,0 -2.4375,-1.096875 -2.4375,-2.4375003 0,-1.3406252 1.096875,-2.4375002 2.4375,-2.4375002 1.340625,0 2.4375,1.096875 2.4375,2.4375002 0,1.3406253 -1.096875,2.4375003 -2.4375,2.4375003 z"
       id="path1179"
       style="fill:#dcdcdc;stroke-width:0.677083" />
  </g>
</svg>
