<?xml version="1.0" encoding="UTF-8" standalone="no"?>
<svg
   height="48"
   viewBox="0 0 70 48"
   width="70"
   fill="#000000"
   version="1.1"
   id="svg828"
   sodipodi:docname="Swap.svg"
   inkscape:version="1.1.2 (b8e25be833, 2022-02-05)"
   xmlns:inkscape="http://www.inkscape.org/namespaces/inkscape"
   xmlns:sodipodi="http://sodipodi.sourceforge.net/DTD/sodipodi-0.dtd"
   xmlns="http://www.w3.org/2000/svg"
   xmlns:svg="http://www.w3.org/2000/svg">
  <defs
     id="defs832" />
  <sodipodi:namedview
     id="namedview830"
     pagecolor="#ffffff"
     bordercolor="#666666"
     borderopacity="1.0"
     inkscape:pageshadow="2"
     inkscape:pageopacity="0.0"
     inkscape:pagecheckerboard="0"
     showgrid="false"
     width="70px"
     inkscape:zoom="7.6770833"
     inkscape:cx="20.059702"
     inkscape:cy="34.062415"
     inkscape:window-width="1920"
     inkscape:window-height="1017"
     inkscape:window-x="-8"
     inkscape:window-y="-8"
     inkscape:window-maximized="1"
     inkscape:current-layer="svg828" />
  <path
     d="m 23.320463,23.711218 -5.536659,5.556575 c -0.378405,0.398321 -0.378405,1.015718 0,1.414039 l 5.536659,5.556575 c 0.617398,0.637314 1.692863,0.179245 1.692863,-0.697061 v -3.584887 h 11.969541 c 1.095382,0 1.991604,-0.896222 1.991604,-1.991604 0,-1.095383 -0.896222,-1.991605 -1.991604,-1.991605 H 25.013326 v -3.564971 c 0,-0.896222 -1.075465,-1.334375 -1.692863,-0.697061 z m 28.898175,-6.393049 -5.536659,-5.556576 c -0.617398,-0.637313 -1.692864,-0.179244 -1.692864,0.697062 v 3.564971 H 32.999659 c -1.095383,0 -1.991604,0.896222 -1.991604,1.991604 0,1.095382 0.896221,1.991604 1.991604,1.991604 h 11.96954 v 3.564971 c 0,0.896222 1.075466,1.334375 1.692864,0.697062 l 5.536659,-5.556575 c 0.398321,-0.378405 0.398321,-1.015719 0.01992,-1.394123 z"
     id="path826"
     style="stroke-width:1.9916" />
</svg>
