<?xml version="1.0" encoding="UTF-8" standalone="no"?>
<svg
   height="48"
   viewBox="0 0 70 48"
   width="70"
   fill="#000000"
   version="1.1"
   id="svg1062"
   sodipodi:docname="Toggle.svg"
   inkscape:version="1.1.2 (b8e25be833, 2022-02-05)"
   xmlns:inkscape="http://www.inkscape.org/namespaces/inkscape"
   xmlns:sodipodi="http://sodipodi.sourceforge.net/DTD/sodipodi-0.dtd"
   xmlns="http://www.w3.org/2000/svg"
   xmlns:svg="http://www.w3.org/2000/svg">
  <defs
     id="defs1066" />
  <sodipodi:namedview
     id="namedview1064"
     pagecolor="#ffffff"
     bordercolor="#666666"
     borderopacity="1.0"
     inkscape:pageshadow="2"
     inkscape:pageopacity="0.0"
     inkscape:pagecheckerboard="0"
     showgrid="false"
     inkscape:zoom="7.4895835"
     inkscape:cx="16.556328"
     inkscape:cy="6.8762168"
     inkscape:window-width="1920"
     inkscape:window-height="1017"
     inkscape:window-x="-8"
     inkscape:window-y="-8"
     inkscape:window-maximized="1"
     inkscape:current-layer="svg1062" />
  <path
     d="m 19.444444,35.666666 h 31.111112 c 1.069444,0 1.944444,-0.875 1.944444,-1.944444 0,-1.069445 -0.875,-1.944445 -1.944444,-1.944445 H 19.444444 c -1.069444,0 -1.944444,0.875 -1.944444,1.944445 0,1.069444 0.875,1.944444 1.944444,1.944444 z m 0,-9.722222 H 50.555556 C 51.625,25.944444 52.5,25.069444 52.5,24 c 0,-1.069445 -0.875,-1.944445 -1.944444,-1.944445 H 19.444444 C 18.375,22.055555 17.5,22.930555 17.5,24 c 0,1.069444 0.875,1.944444 1.944444,1.944444 z M 17.5,14.277778 c 0,1.069444 0.875,1.944444 1.944444,1.944444 h 31.111112 c 1.069444,0 1.944444,-0.875 1.944444,-1.944444 0,-1.069444 -0.875,-1.944444 -1.944444,-1.944444 H 19.444444 c -1.069444,0 -1.944444,0.875 -1.944444,1.944444 z"
     id="path1060"
     style="fill:#808080;stroke-width:1.94444" />
</svg>
